<?xml version="1.0" encoding="UTF-8" standalone="no"?>
<!DOCTYPE svg PUBLIC "-//W3C//DTD SVG 1.1//EN" "http://www.w3.org/Graphics/SVG/1.1/DTD/svg11.dtd">
<svg width="100%" height="100%" viewBox="0 0 557 176" version="1.1" xmlns="http://www.w3.org/2000/svg" xmlns:xlink="http://www.w3.org/1999/xlink" xml:space="preserve" xmlns:serif="http://www.serif.com/" style="fill-rule:evenodd;clip-rule:evenodd;stroke-linecap:round;stroke-linejoin:round;stroke-miterlimit:1.5;">
    <g transform="matrix(1,0,0,1,-410.417,-1033.77)">
        <g>
            <g transform="matrix(0.941838,0.219958,-0.227421,0.973796,383.714,222.59)">
                <path d="M509.43,773.128L488.81,773.128L488.81,899.109C488.81,900.013 489.234,900.868 489.963,901.434C490.691,902 491.646,902.216 492.558,902.022C496.172,901.251 501.591,900.094 505.066,899.353C507.029,898.934 508.431,897.259 508.447,895.316C508.607,875.442 509.43,773.128 509.43,773.128Z"/>
            </g>
            <g transform="matrix(0.113372,-0.960514,0.571504,0.0674559,293.879,1475.13)">
                <path d="M507.027,787.149C507.588,783.768 507.166,780.141 505.89,777.363C504.613,774.585 502.632,772.983 500.544,773.04C494.962,773.193 488.807,773.361 488.807,773.361L471.686,875.892L492.307,875.892C492.307,875.892 502.327,815.483 507.027,787.149Z"/>
            </g>
            <g transform="matrix(1.32008,0.468407,-0.512336,1.44388,413.366,-29.6497)">
                <circle cx="393.531" cy="648.678" r="28.511" style="fill:none;stroke:black;stroke-width:13.63px;"/>
            </g>
            <path d="M698.7,1042.93C660.296,1061.48 660.444,1061.23 624.812,1043.63L614.388,1059.05C642.607,1079.5 674.366,1080.06 706.048,1059.87L698.7,1042.93Z"/>
            <g transform="matrix(0.986275,-0.165114,0.165114,0.986275,-76.3962,200.189)">
                <path d="M691.316,1033.58C676.1,1043.86 658.904,1055.61 624.812,1043.63L610.289,1057.04C638.142,1074.45 672.284,1065.63 693.487,1055.52C716.075,1044.74 735.034,989.367 733.938,989.36L716.108,981.942C716.108,981.942 706.532,1023.3 691.316,1033.58Z"/>
            </g>
            <g transform="matrix(-0.0653602,-0.997862,-0.997862,0.0653602,1955.46,1687.92)">
                <path d="M698.215,1062.8C696.673,1059.28 692.595,1057.65 689.049,1059.13C680.705,1062.73 674.313,1066.51 667.821,1067.86C648.307,1071.9 636.957,1067.97 634.214,1062.59C628.505,1051.39 653.33,1025.67 688.43,1014.97L682.698,997.575C664.622,998.05 637.879,1015.42 625.767,1033.44C611.015,1055.4 608.769,1079.2 647.753,1087.07C660.321,1089.61 678.777,1085.76 691.804,1078.21C696.611,1075.42 696.858,1072.49 701.088,1069.36C701.088,1069.36 699.638,1066.05 698.215,1062.8Z"/>
            </g>
            <g transform="matrix(1.32008,0.468407,-0.512336,1.44388,530.464,-29.6497)">
                <circle cx="393.531" cy="648.678" r="28.511" style="fill:none;stroke:black;stroke-width:13.63px;"/>
            </g>
            <g transform="matrix(1,0,0,1,52.4823,-5.0783)">
                <circle cx="858.848" cy="1049.66" r="10.81"/>
            </g>
            <g transform="matrix(1,0,0,1,51.7525,-63.8665)">
                <path d="M840.593,1153.57C839.584,1157.33 839.073,1161.21 839.073,1165.11C839.073,1189.73 859.062,1209.72 883.683,1209.72C893.298,1209.72 902.593,1206.62 910.228,1200.96C911.567,1199.98 912.409,1198.46 912.533,1196.8C912.658,1195.14 912.054,1193.51 910.878,1192.34C908.82,1190.25 906.379,1187.81 904.46,1185.89C902.706,1184.13 899.946,1183.89 897.911,1185.31C893.781,1188.24 888.814,1189.83 883.683,1189.83C870.039,1189.83 858.961,1178.76 858.961,1165.11C858.961,1162.95 859.245,1160.8 859.804,1158.71L840.593,1153.57Z"/>
            </g>
            <path d="M525.024,1123.66C525.024,1123.66 526.048,1122.92 526.198,1122.8C532.173,1117.98 538.775,1103.56 540.625,1099.41C545.407,1088.66 553.15,1073.07 558.949,1063.25L572.182,1078.07C568.835,1088.78 560.618,1101.8 550.401,1122.71C544.627,1134.49 532.653,1141.95 519.536,1141.95C519.535,1141.96 519.535,1141.96 519.534,1141.96C512.001,1141.96 504.937,1138.3 500.59,1132.15C496.242,1126 495.152,1118.12 497.667,1111.02C499.974,1104.5 501.223,1098.61 501.223,1098.61C508.211,1078.12 489.155,1056.53 468.246,1067.48C465.288,1069.03 462.572,1071.17 460.395,1073.7C458.095,1076.38 456.244,1079.52 455.046,1082.84L454.988,1083C454.988,1083 442.148,1119.26 436.607,1134.91C435.111,1139.13 431.114,1141.96 426.631,1141.96C423.537,1141.96 419.924,1141.96 416.696,1141.96C414.657,1141.96 412.745,1140.97 411.568,1139.3C410.391,1137.64 410.096,1135.5 410.777,1133.58C417.158,1115.56 431.619,1074.73 431.619,1074.73C451.343,1015.1 537.127,1041.92 522.288,1093.07C519.947,1101.13 516.458,1116.74 516.458,1116.74C515.408,1119.98 517.032,1123.41 520.083,1124.4C521.792,1124.96 523.589,1124.63 525.024,1123.66Z"/>
            <g transform="matrix(0.939764,0.219473,-0.0492822,0.211022,477.283,792.597)">
                <path d="M509.43,799.841C509.43,792.757 508.798,785.962 507.674,780.952C506.549,775.942 505.023,773.128 503.432,773.128C500.484,773.128 496.962,773.128 494.113,773.128C492.707,773.128 491.358,775.616 490.364,780.045C489.369,784.474 488.81,790.481 488.81,796.745C488.81,834.148 488.81,902.821 488.81,902.821L509.43,902.821L509.43,799.841Z"/>
            </g>
        </g>
    </g>
</svg>
