<?xml version="1.0" encoding="UTF-8" standalone="no"?>
<!DOCTYPE svg PUBLIC "-//W3C//DTD SVG 1.1//EN" "http://www.w3.org/Graphics/SVG/1.1/DTD/svg11.dtd">
<svg width="100%" height="100%" viewBox="0 0 126 126" version="1.1" xmlns="http://www.w3.org/2000/svg" xmlns:xlink="http://www.w3.org/1999/xlink" xml:space="preserve" xmlns:serif="http://www.serif.com/" style="fill-rule:evenodd;clip-rule:evenodd;stroke-linejoin:round;stroke-miterlimit:2;">
    <g transform="matrix(1,0,0,1,-623.272,-819.996)">
        <g transform="matrix(0.414396,0,0,0.531365,396.272,405.433)">
            <g transform="matrix(0.870849,0,0,0.505454,86.4353,423.365)">
                <rect x="588.805" y="785.263" width="230.446" height="103.213" style="fill:rgb(220,87,87);"/>
            </g>
            <g transform="matrix(0.870849,0,0,0.505454,86.4353,475.534)">
                <rect x="588.805" y="785.263" width="230.446" height="103.213" style="fill:rgb(243,206,106);"/>
            </g>
            <g transform="matrix(0.870849,0,0,0.505454,86.4353,527.703)">
                <rect x="588.805" y="785.263" width="230.446" height="103.213" style="fill:rgb(112,150,202);"/>
            </g>
        </g>
        <g transform="matrix(0.578646,0,0,0.578646,284.764,353.972)">
            <path d="M716.236,807.738C701.363,804.582 685.994,804.582 671.12,807.738L668.545,831.489C663.192,833.118 658.009,835.265 653.071,837.898L634.456,822.925C621.707,831.21 610.839,842.078 602.554,854.826L617.527,873.442C614.894,878.38 612.748,883.562 611.118,888.916L587.367,891.491C584.211,906.364 584.211,921.734 587.367,936.607L611.118,939.183C612.748,944.536 614.894,949.718 617.527,954.656L602.554,973.272C610.839,986.02 621.707,996.888 634.456,1005.17L653.071,990.2C658.009,992.833 663.192,994.98 668.545,996.61L671.12,1020.36C685.994,1023.52 701.363,1023.52 716.236,1020.36L718.812,996.61C724.165,994.98 729.348,992.833 734.285,990.2L752.901,1005.17C765.65,996.888 776.518,986.02 784.803,973.272L769.83,954.656C772.463,949.718 774.609,944.536 776.239,939.183L799.99,936.607C803.146,921.734 803.146,906.364 799.99,891.491L776.239,888.916C774.609,883.562 772.463,878.38 769.83,873.442L784.803,854.826C776.518,842.078 765.65,831.21 752.901,822.925L734.285,837.898C729.348,835.265 724.165,833.118 718.812,831.489L716.236,807.738ZM693.678,856.301C725.55,856.301 751.426,882.177 751.426,914.049C751.426,945.921 725.55,971.797 693.678,971.797C661.807,971.797 635.931,945.921 635.931,914.049C635.931,882.177 661.807,856.301 693.678,856.301Z"/>
        </g>
    </g>
</svg>
