<?xml version="1.0" encoding="UTF-8" standalone="no"?>
<!DOCTYPE svg PUBLIC "-//W3C//DTD SVG 1.1//EN" "http://www.w3.org/Graphics/SVG/1.1/DTD/svg11.dtd">
<svg width="100%" height="100%" viewBox="0 0 560 192" version="1.1" xmlns="http://www.w3.org/2000/svg" xmlns:xlink="http://www.w3.org/1999/xlink" xml:space="preserve" xmlns:serif="http://www.serif.com/" style="fill-rule:evenodd;clip-rule:evenodd;stroke-linecap:round;stroke-linejoin:round;stroke-miterlimit:1.5;">
    <g transform="matrix(1,0,0,1,-408.049,-1030.39)">
        <g id="nopri_mask">
            <path id="dot" d="M911.39,1045.59C911.853,1045.59 912.314,1045.39 912.838,1045.39" style="fill:none;stroke:white;stroke-width:30px;"/>
            <path id="ri" d="M717.616,1134.59C747.598,1160.71 821.044,1075.76 800.261,1052.47C799.15,1051.22 804.395,1053.02 805.855,1053.31C811.84,1054.48 816.669,1058.75 822.238,1061.02C828.356,1063.51 834.489,1066.03 840.592,1068.51C841.595,1068.92 845.821,1069.8 846.57,1070.72C846.946,1071.18 845.397,1071.02 844.892,1071.34C844.067,1071.86 843.554,1072.69 842.915,1073.41C840.784,1075.81 839.553,1079.06 839.052,1082.23C838.658,1084.72 839.055,1087.32 838.674,1089.84C837.495,1097.65 835.583,1107.55 838.054,1115.28C839.968,1121.27 844.896,1124.23 849.389,1127.7C850.433,1128.51 851.335,1130.08 852.6,1130.45C868.466,1135.01 904.918,1085.23 906.459,1077.47C908.008,1069.67 907.811,1078.48 907.331,1079.49C889.413,1117.14 933.012,1155.1 952.375,1131.66" style="fill:none;stroke:white;stroke-width:30px;"/>
            <path id="p" d="M605.061,1050.05C606.541,1050.05 651.849,1060.47 651.849,1060.47C664.221,1059.97 676.31,1058.57 688.427,1057.25C743.732,1041.38 758.058,1063.11 754.638,1087.74C754.474,1088.92 752.391,1096.68 752.148,1097.87C751.296,1102.05 749.69,1107.68 747.023,1110.52C733.734,1124.66 720.923,1135.39 702.333,1132.24C701.575,1132.12 700.86,1131.76 700.113,1131.49C696.918,1117.49 686.81,1084.42 682.466,1077.66C682.092,1077.08 654.289,1206.74 654.49,1206.41" style="fill:none;stroke:white;stroke-width:30px;"/>
            <path id="no" d="M423.049,1131.49C434.183,1098.86 439.842,1072.33 455.434,1059.85C497.401,1026.24 522.609,1087.86 508.306,1113.42C497.99,1131.85 512.999,1134.58 529.741,1125.55C536.527,1121.89 555.537,1078.41 561.321,1071.15C568.44,1062.21 583.43,1055.83 596.432,1052.62C625.944,1045.33 642.034,1084.94 637.38,1104.77C637.102,1105.95 624.345,1121.08 618.91,1127.77C617.762,1129.18 604.041,1130.51 599.482,1131.06C598.839,1131.13 585.929,1128.02 578.598,1126.25C576.637,1125.78 569.939,1118.64 565.723,1113.98C563.639,1111.67 563.71,1091.35 563.637,1091.33" style="fill:none;stroke:white;stroke-width:30px;"/>
        </g>
    </g>
</svg>
